<svg xmlns="http://www.w3.org/2000/svg" xmlns:xlink="http://www.w3.org/1999/xlink" version="1.1" x="0px" y="0px" viewBox="0 0 100 125" enable-background="new 0 0 100 100" xml:space="preserve"><g display="none"><path display="inline" fill="#000000" d="M75.001,12.857H40.592c-0.925,0-1.677-0.75-1.677-1.676V6.676   C38.915,5.75,39.667,5,40.592,5h34.409c0.926,0,1.676,0.75,1.676,1.676v4.504C76.677,12.107,75.927,12.857,75.001,12.857z"/><path display="inline" fill="#000000" d="M56.997,95H71.2c6.941,0,12.573-5.629,12.573-12.572v-49.98   c0-2.643-0.694-4.891-2.181-7.074L75.1,14.896c0,0-6.526,0-10.828,0h-7.275h-5.676c-4.302,0-10.826,0-10.826,0l-6.493,10.478   c-1.486,2.184-2.18,4.432-2.18,7.074v49.98c0,6.943,5.629,12.573,12.573,12.573L56.997,95L56.997,95z"/></g><g display="none"><rect x="40" y="12.5" display="inline" width="35" height="2.5"/><rect x="40" y="5" display="inline" width="35" height="2.5"/><rect x="75" y="7.5" display="inline" width="2.5" height="5"/><rect x="37.5" y="7.5" display="inline" width="2.5" height="5"/><rect x="40" y="17.5" display="inline" width="35" height="2.5"/><rect x="37.5" y="92.5" display="inline" width="40" height="2.5"/><rect x="32.5" y="30" display="inline" width="2.5" height="57.5"/><rect x="80" y="30" display="inline" width="2.5" height="57.5"/><rect x="35" y="87.5" display="inline" width="2.5" height="2.5"/><rect x="37.5" y="90" display="inline" width="2.5" height="2.5"/><rect x="75" y="90" display="inline" width="2.5" height="2.5"/><rect x="77.5" y="87.5" display="inline" width="2.5" height="2.5"/><rect x="75" y="20" display="inline" width="2.5" height="2.5"/><rect x="77.5" y="22.5" display="inline" width="2.5" height="7.5"/><rect x="80" y="27.5" display="inline" width="2.5" height="0"/><rect x="37.5" y="20" display="inline" width="2.5" height="2.5"/><rect x="35" y="22.5" display="inline" width="2.5" height="7.5"/><rect x="32.5" y="37.5" display="inline" width="50" height="2.5"/><rect x="32.5" y="62.5" display="inline" width="50" height="2.5"/></g><g><path d="M50,94.772c-24.793,0-44.962-20.17-44.962-44.962C5.037,25.018,25.207,4.847,50,4.847   c24.793,0,44.963,20.171,44.963,44.964C94.963,74.603,74.793,94.772,50,94.772z M50,9.095c-22.45,0-40.714,18.265-40.714,40.716   C9.285,72.26,27.55,90.524,50,90.524c22.45,0,40.715-18.265,40.715-40.714C90.715,27.359,72.45,9.095,50,9.095z"/><path d="M69.895,23.982H67.59c-3.813,0-6.914,3.02-6.914,6.73v11.463L42.532,26.207c-1.649-1.452-3.28-2.188-4.845-2.188   c-2.26,0-4.899,1.727-4.899,6.593v37.828c0,4.866,2.639,6.594,4.899,6.594c1.566,0,3.196-0.736,4.846-2.189l18.144-15.969v11.328   c0,3.711,3.102,6.73,6.914,6.73h2.305c3.813,0,6.914-3.02,6.914-6.73v-37.49C76.809,27.002,73.708,23.982,69.895,23.982z"/></g><text x="0" y="115" fill="#000000" font-size="5px" font-weight="bold" font-family="'Helvetica Neue', Helvetica, Arial-Unicode, Arial, Sans-serif">Created by Universal Icons</text><text x="0" y="120" fill="#000000" font-size="5px" font-weight="bold" font-family="'Helvetica Neue', Helvetica, Arial-Unicode, Arial, Sans-serif">from the Noun Project</text></svg>