<svg xmlns="http://www.w3.org/2000/svg" xmlns:xlink="http://www.w3.org/1999/xlink" version="1.1" x="0px" y="0px" viewBox="0 0 100 125" enable-background="new 0 0 100 100" xml:space="preserve"><g display="none"><path display="inline" fill="#000000" d="M62.264,93.641H47.572c-0.922,0-1.668-0.746-1.668-1.666V27.922h-3.737   c-0.597,0-1.146-0.318-1.442-0.834c-0.3-0.516-0.3-1.15,0-1.667L53.477,3.333C53.771,2.818,54.322,2.5,54.918,2.5l0,0   c0.596,0,1.146,0.318,1.443,0.833L69.113,25.42c0.299,0.518,0.299,1.15,0,1.667c-0.297,0.517-0.848,0.834-1.442,0.834h-3.739   v64.054C63.932,92.895,63.186,93.641,62.264,93.641z"/></g><g display="none"><rect x="32.5" y="27.5" display="inline" width="5" height="5"/><rect x="37.5" y="32.5" display="inline" width="5" height="5"/><rect x="37.5" y="27.5" display="inline" width="5" height="5"/><rect x="57.5" y="27.5" display="inline" width="5" height="5"/><rect x="57.5" y="32.5" display="inline" width="5" height="5"/><rect x="62.5" y="27.5" display="inline" width="5" height="5"/><rect x="62.5" y="57.5" display="inline" width="5" height="5"/><rect x="57.5" y="52.5" display="inline" width="5" height="5"/><rect x="52.5" y="47.5" display="inline" width="5" height="5"/><rect x="47.5" y="47.5" display="inline" width="5" height="5"/><rect x="42.5" y="47.5" display="inline" width="5" height="5"/><rect x="37.5" y="52.5" display="inline" width="5" height="5"/><rect x="32.5" y="57.5" display="inline" width="5" height="5"/><rect x="67.5" y="62.5" display="inline" width="5" height="5"/><rect x="62.5" y="62.5" display="inline" width="5" height="5"/><rect x="32.5" y="62.5" display="inline" width="5" height="5"/><rect x="27.5" y="62.5" display="inline" width="5" height="5"/><rect x="5" y="50" display="inline" width="2.5" height="2.5"/><rect x="5" y="47.5" display="inline" width="2.5" height="2.5"/><rect x="5" y="45" display="inline" width="2.5" height="2.5"/><rect x="7.5" y="42.5" display="inline" width="2.5" height="2.5"/><rect x="7.5" y="40" display="inline" width="2.5" height="2.5"/><rect x="7.5" y="37.5" display="inline" width="2.5" height="2.5"/><rect x="10" y="35" display="inline" width="2.5" height="2.5"/><rect x="10" y="32.5" display="inline" width="2.5" height="2.5"/><rect x="10" y="30" display="inline" width="2.5" height="2.5"/><rect x="12.5" y="27.5" display="inline" width="2.5" height="2.5"/><rect x="12.5" y="25" display="inline" width="2.5" height="2.5"/><rect x="15" y="22.5" display="inline" width="2.5" height="2.5"/><rect x="17.5" y="20" display="inline" width="2.5" height="2.5"/><rect x="20" y="17.5" display="inline" width="2.5" height="2.5"/><rect x="22.5" y="15" display="inline" width="2.5" height="2.5"/><rect x="25" y="12.5" display="inline" width="2.5" height="2.5"/><rect x="27.5" y="12.5" display="inline" width="2.5" height="2.5"/><rect x="30" y="10" display="inline" width="2.5" height="2.5"/><rect x="32.5" y="10" display="inline" width="2.5" height="2.5"/><rect x="35" y="7.5" display="inline" width="2.5" height="2.5"/><rect x="37.5" y="7.5" display="inline" width="2.5" height="2.5"/><rect x="40" y="7.5" display="inline" width="2.5" height="2.5"/><rect x="42.5" y="5" display="inline" width="2.5" height="2.5"/><rect x="45" y="5" display="inline" width="2.5" height="2.5"/><rect x="47.5" y="5" display="inline" width="2.5" height="2.5"/><rect x="92.5" y="50" display="inline" width="2.5" height="2.5"/><rect x="92.5" y="47.5" display="inline" width="2.5" height="2.5"/><rect x="92.5" y="45" display="inline" width="2.5" height="2.5"/><rect x="90" y="42.5" display="inline" width="2.5" height="2.5"/><rect x="90" y="40" display="inline" width="2.5" height="2.5"/><rect x="90" y="37.5" display="inline" width="2.5" height="2.5"/><rect x="87.5" y="35" display="inline" width="2.5" height="2.5"/><rect x="87.5" y="32.5" display="inline" width="2.5" height="2.5"/><rect x="87.5" y="30" display="inline" width="2.5" height="2.5"/><rect x="85" y="27.5" display="inline" width="2.5" height="2.5"/><rect x="85" y="25" display="inline" width="2.5" height="2.5"/><rect x="82.5" y="22.5" display="inline" width="2.5" height="2.5"/><rect x="80" y="20" display="inline" width="2.5" height="2.5"/><rect x="77.5" y="17.5" display="inline" width="2.5" height="2.5"/><rect x="75" y="15" display="inline" width="2.5" height="2.5"/><rect x="72.5" y="12.5" display="inline" width="2.5" height="2.5"/><rect x="70" y="12.5" display="inline" width="2.5" height="2.5"/><rect x="67.5" y="10" display="inline" width="2.5" height="2.5"/><rect x="65" y="10" display="inline" width="2.5" height="2.5"/><rect x="62.5" y="7.5" display="inline" width="2.5" height="2.5"/><rect x="60" y="7.5" display="inline" width="2.5" height="2.5"/><rect x="57.5" y="7.5" display="inline" width="2.5" height="2.5"/><rect x="55" y="5" display="inline" width="2.5" height="2.5"/><rect x="52.5" y="5" display="inline" width="2.5" height="2.5"/><rect x="50" y="5" display="inline" width="2.5" height="2.5"/><rect x="5" y="47.5" display="inline" width="2.5" height="2.5"/><rect x="5" y="50" display="inline" width="2.5" height="2.5"/><rect x="5" y="52.5" display="inline" width="2.5" height="2.5"/><rect x="7.5" y="55" display="inline" width="2.5" height="2.5"/><rect x="7.5" y="57.5" display="inline" width="2.5" height="2.5"/><rect x="7.5" y="60" display="inline" width="2.5" height="2.5"/><rect x="10" y="62.5" display="inline" width="2.5" height="2.5"/><rect x="10" y="65" display="inline" width="2.5" height="2.5"/><rect x="10" y="67.5" display="inline" width="2.5" height="2.5"/><rect x="12.5" y="70" display="inline" width="2.5" height="2.5"/><rect x="12.5" y="72.5" display="inline" width="2.5" height="2.5"/><rect x="15" y="75" display="inline" width="2.5" height="2.5"/><rect x="17.5" y="77.5" display="inline" width="2.5" height="2.5"/><rect x="20" y="80" display="inline" width="2.5" height="2.5"/><rect x="22.5" y="82.5" display="inline" width="2.5" height="2.5"/><rect x="25" y="85" display="inline" width="2.5" height="2.5"/><rect x="27.5" y="85" display="inline" width="2.5" height="2.5"/><rect x="30" y="87.5" display="inline" width="2.5" height="2.5"/><rect x="32.5" y="87.5" display="inline" width="2.5" height="2.5"/><rect x="35" y="90" display="inline" width="2.5" height="2.5"/><rect x="37.5" y="90" display="inline" width="2.5" height="2.5"/><rect x="40" y="90" display="inline" width="2.5" height="2.5"/><rect x="42.5" y="92.5" display="inline" width="2.5" height="2.5"/><rect x="45" y="92.5" display="inline" width="2.5" height="2.5"/><rect x="47.5" y="92.5" display="inline" width="2.5" height="2.5"/><rect x="92.5" y="47.5" display="inline" width="2.5" height="2.5"/><rect x="92.5" y="50" display="inline" width="2.5" height="2.5"/><rect x="92.5" y="52.5" display="inline" width="2.5" height="2.5"/><rect x="90" y="55" display="inline" width="2.5" height="2.5"/><rect x="90" y="57.5" display="inline" width="2.5" height="2.5"/><rect x="90" y="60" display="inline" width="2.5" height="2.5"/><rect x="87.5" y="62.5" display="inline" width="2.5" height="2.5"/><rect x="87.5" y="65" display="inline" width="2.5" height="2.5"/><rect x="87.5" y="67.5" display="inline" width="2.5" height="2.5"/><rect x="85" y="70" display="inline" width="2.5" height="2.5"/><rect x="85" y="72.5" display="inline" width="2.5" height="2.5"/><rect x="82.5" y="75" display="inline" width="2.5" height="2.5"/><rect x="80" y="77.5" display="inline" width="2.5" height="2.5"/><rect x="77.5" y="80" display="inline" width="2.5" height="2.5"/><rect x="75" y="82.5" display="inline" width="2.5" height="2.5"/><rect x="72.5" y="85" display="inline" width="2.5" height="2.5"/><rect x="70" y="85" display="inline" width="2.5" height="2.5"/><rect x="67.5" y="87.5" display="inline" width="2.5" height="2.5"/><rect x="65" y="87.5" display="inline" width="2.5" height="2.5"/><rect x="62.5" y="90" display="inline" width="2.5" height="2.5"/><rect x="60" y="90" display="inline" width="2.5" height="2.5"/><rect x="57.5" y="90" display="inline" width="2.5" height="2.5"/><rect x="90" y="50" display="inline" width="2.5" height="2.5"/><rect x="90" y="47.5" display="inline" width="2.5" height="2.5"/><rect x="90" y="45" display="inline" width="2.5" height="2.5"/><rect x="87.5" y="42.5" display="inline" width="2.5" height="2.5"/><rect x="87.5" y="40" display="inline" width="2.5" height="2.5"/><rect x="87.5" y="37.5" display="inline" width="2.5" height="2.5"/><rect x="85" y="35" display="inline" width="2.5" height="2.5"/><rect x="85" y="32.5" display="inline" width="2.5" height="2.5"/><rect x="85" y="30" display="inline" width="2.5" height="2.5"/><rect x="82.5" y="27.5" display="inline" width="2.5" height="2.5"/><rect x="82.5" y="25" display="inline" width="2.5" height="2.5"/><rect x="80" y="22.5" display="inline" width="2.5" height="2.5"/><rect x="77.5" y="20" display="inline" width="2.5" height="2.5"/><rect x="75" y="17.5" display="inline" width="2.5" height="2.5"/><rect x="72.5" y="15" display="inline" width="2.5" height="2.5"/><rect x="70" y="12.5" display="inline" width="2.5" height="2.5"/><rect x="67.5" y="12.5" display="inline" width="2.5" height="2.5"/><rect x="65" y="10" display="inline" width="2.5" height="2.5"/><rect x="62.5" y="10" display="inline" width="2.5" height="2.5"/><rect x="60" y="7.5" display="inline" width="2.5" height="2.5"/><rect x="57.5" y="7.5" display="inline" width="2.5" height="2.5"/><rect x="55" y="7.5" display="inline" width="2.5" height="2.5"/><rect x="90" y="47.5" display="inline" width="2.5" height="2.5"/><rect x="90" y="50" display="inline" width="2.5" height="2.5"/><rect x="90" y="52.5" display="inline" width="2.5" height="2.5"/><rect x="87.5" y="55" display="inline" width="2.5" height="2.5"/><rect x="87.5" y="57.5" display="inline" width="2.5" height="2.5"/><rect x="87.5" y="60" display="inline" width="2.5" height="2.5"/><rect x="85" y="62.5" display="inline" width="2.5" height="2.5"/><rect x="85" y="65" display="inline" width="2.5" height="2.5"/><rect x="85" y="67.5" display="inline" width="2.5" height="2.5"/><rect x="82.5" y="70" display="inline" width="2.5" height="2.5"/><rect x="82.5" y="72.5" display="inline" width="2.5" height="2.5"/><rect x="80" y="75" display="inline" width="2.5" height="2.5"/><rect x="77.5" y="77.5" display="inline" width="2.5" height="2.5"/><rect x="72.5" y="82.5" display="inline" width="2.5" height="2.5"/><rect x="70" y="85" display="inline" width="2.5" height="2.5"/><rect x="67.5" y="85" display="inline" width="2.5" height="2.5"/><rect x="65" y="87.5" display="inline" width="2.5" height="2.5"/><rect x="62.5" y="87.5" display="inline" width="2.5" height="2.5"/><rect x="60" y="90" display="inline" width="2.5" height="2.5"/><rect x="57.5" y="90" display="inline" width="2.5" height="2.5"/><rect x="55" y="90" display="inline" width="2.5" height="2.5"/><rect x="55" y="92.5" display="inline" width="2.5" height="2.5"/><rect x="52.5" y="92.5" display="inline" width="2.5" height="2.5"/><rect x="50" y="92.5" display="inline" width="2.5" height="2.5"/><rect x="7.5" y="50" display="inline" width="2.5" height="2.5"/><rect x="7.5" y="47.5" display="inline" width="2.5" height="2.5"/><rect x="7.5" y="45" display="inline" width="2.5" height="2.5"/><rect x="10" y="42.5" display="inline" width="2.5" height="2.5"/><rect x="10" y="40" display="inline" width="2.5" height="2.5"/><rect x="10" y="37.5" display="inline" width="2.5" height="2.5"/><rect x="12.5" y="35" display="inline" width="2.5" height="2.5"/><rect x="12.5" y="32.5" display="inline" width="2.5" height="2.5"/><rect x="12.5" y="30" display="inline" width="2.5" height="2.5"/><rect x="15" y="27.5" display="inline" width="2.5" height="2.5"/><rect x="15" y="25" display="inline" width="2.5" height="2.5"/><rect x="17.5" y="22.5" display="inline" width="2.5" height="2.5"/><rect x="20" y="20" display="inline" width="2.5" height="2.5"/><rect x="22.5" y="17.5" display="inline" width="2.5" height="2.5"/><rect x="25" y="15" display="inline" width="2.5" height="2.5"/><rect x="27.5" y="12.5" display="inline" width="2.5" height="2.5"/><rect x="30" y="12.5" display="inline" width="2.5" height="2.5"/><rect x="32.5" y="10" display="inline" width="2.5" height="2.5"/><rect x="35" y="10" display="inline" width="2.5" height="2.5"/><rect x="37.5" y="7.5" display="inline" width="2.5" height="2.5"/><rect x="40" y="7.5" display="inline" width="2.5" height="2.5"/><rect x="42.5" y="7.5" display="inline" width="2.5" height="2.5"/><rect x="45" y="5" display="inline" width="2.5" height="2.5"/><rect x="47.5" y="5" display="inline" width="2.5" height="2.5"/><rect x="50" y="5" display="inline" width="2.5" height="2.5"/><rect x="52.5" y="5" display="inline" width="2.5" height="2.5"/><rect x="45" y="7.5" display="inline" width="2.5" height="2.5"/><rect x="47.5" y="7.5" display="inline" width="2.5" height="2.5"/><rect x="50" y="7.5" display="inline" width="2.5" height="2.5"/><rect x="52.5" y="7.5" display="inline" width="2.5" height="2.5"/><rect x="7.5" y="47.5" display="inline" width="2.5" height="2.5"/><rect x="7.5" y="50" display="inline" width="2.5" height="2.5"/><rect x="7.5" y="52.5" display="inline" width="2.5" height="2.5"/><rect x="10" y="55" display="inline" width="2.5" height="2.5"/><rect x="10" y="57.5" display="inline" width="2.5" height="2.5"/><rect x="10" y="60" display="inline" width="2.5" height="2.5"/><rect x="12.5" y="62.5" display="inline" width="2.5" height="2.5"/><rect x="12.5" y="65" display="inline" width="2.5" height="2.5"/><rect x="12.5" y="67.5" display="inline" width="2.5" height="2.5"/><rect x="15" y="70" display="inline" width="2.5" height="2.5"/><rect x="15" y="72.5" display="inline" width="2.5" height="2.5"/><rect x="17.5" y="75" display="inline" width="2.5" height="2.5"/><rect x="22.5" y="80" display="inline" width="2.5" height="2.5"/><rect x="25" y="82.5" display="inline" width="2.5" height="2.5"/><rect x="27.5" y="85" display="inline" width="2.5" height="2.5"/><rect x="30" y="85" display="inline" width="2.5" height="2.5"/><rect x="32.5" y="87.5" display="inline" width="2.5" height="2.5"/><rect x="35" y="87.5" display="inline" width="2.5" height="2.5"/><rect x="37.5" y="90" display="inline" width="2.5" height="2.5"/><rect x="40" y="90" display="inline" width="2.5" height="2.5"/><rect x="42.5" y="90" display="inline" width="2.5" height="2.5"/><rect x="45" y="92.5" display="inline" width="2.5" height="2.5"/><rect x="47.5" y="92.5" display="inline" width="2.5" height="2.5"/><rect x="50" y="92.5" display="inline" width="2.5" height="2.5"/><rect x="52.5" y="92.5" display="inline" width="2.5" height="2.5"/><rect x="42.5" y="90" display="inline" width="2.5" height="2.5"/><rect x="45" y="90" display="inline" width="2.5" height="2.5"/><rect x="47.5" y="90" display="inline" width="2.5" height="2.5"/><rect x="50" y="90" display="inline" width="2.5" height="2.5"/><rect x="45" y="90" display="inline" width="2.5" height="2.5"/><rect x="47.5" y="90" display="inline" width="2.5" height="2.5"/><rect x="50" y="90" display="inline" width="2.5" height="2.5"/><rect x="52.5" y="90" display="inline" width="2.5" height="2.5"/></g><g><path d="M50,94.816c-24.793,0-44.963-20.17-44.963-44.963S25.207,4.891,50,4.891s44.963,20.17,44.963,44.963   S74.793,94.816,50,94.816z M50,9.139c-22.449,0-40.715,18.265-40.715,40.715c0,22.449,18.266,40.715,40.715,40.715   s40.715-18.266,40.715-40.715C90.715,27.403,72.449,9.139,50,9.139z"/><path d="M39.86,23.982h-2.306c-3.812,0-6.913,3.02-6.913,6.73v37.49c0,3.711,3.102,6.73,6.913,6.73h2.306   c3.813,0,6.914-3.02,6.914-6.73v-37.49C46.774,27.002,43.673,23.982,39.86,23.982z"/><path d="M60.336,23.982H58.03c-3.812,0-6.913,3.02-6.913,6.73v37.49c0,3.711,3.102,6.73,6.913,6.73h2.306   c3.813,0,6.914-3.02,6.914-6.73v-37.49C67.25,27.002,64.148,23.982,60.336,23.982z"/></g><text x="0" y="115" fill="#000000" font-size="5px" font-weight="bold" font-family="'Helvetica Neue', Helvetica, Arial-Unicode, Arial, Sans-serif">Created by Universal Icons</text><text x="0" y="120" fill="#000000" font-size="5px" font-weight="bold" font-family="'Helvetica Neue', Helvetica, Arial-Unicode, Arial, Sans-serif">from the Noun Project</text></svg>