<svg xmlns="http://www.w3.org/2000/svg" xmlns:xlink="http://www.w3.org/1999/xlink" version="1.1" x="0px" y="0px" viewBox="0 0 100 125" enable-background="new 0 0 100 100" xml:space="preserve"><g display="none"><rect x="55" y="5" display="inline" width="2.5" height="32.5"/><rect x="57.5" y="5" display="inline" width="5" height="2.5"/><rect x="62.5" y="7.5" display="inline" width="5" height="2.5"/><rect x="65" y="10" display="inline" width="5" height="2.5"/><rect x="70" y="12.5" display="inline" width="5" height="2.5"/><rect x="75" y="15" display="inline" width="5" height="2.5"/><rect x="80" y="17.5" display="inline" width="2.5" height="2.5"/><rect x="82.5" y="20" display="inline" width="2.5" height="2.5"/><rect x="57.5" y="35" display="inline" width="5" height="2.5"/><rect x="62.5" y="32.5" display="inline" width="5" height="2.5"/><rect x="65" y="30" display="inline" width="5" height="2.5"/><rect x="70" y="27.5" display="inline" width="5" height="2.5"/><rect x="75" y="25" display="inline" width="5" height="2.5"/><rect x="80" y="22.5" display="inline" width="2.5" height="2.5"/><rect x="82.5" y="20" display="inline" width="2.5" height="2.5"/><rect x="17.5" y="42.5" display="inline" width="2.5" height="22.5"/><rect x="57.5" y="75" display="inline" width="2.5" height="17.5"/><rect x="45" y="92.5" display="inline" width="12.5" height="2.5"/><rect x="50" y="72.5" display="inline" width="7.5" height="2.5"/><rect x="45" y="70" display="inline" width="5" height="2.5"/><rect x="42.5" y="67.5" display="inline" width="2.5" height="2.5"/><rect x="40" y="65" display="inline" width="2.5" height="2.5"/><rect x="37.5" y="62.5" display="inline" width="2.5" height="2.5"/><rect x="35" y="47.5" display="inline" width="2.5" height="12.5"/><rect x="37.5" y="60" display="inline" width="2.5" height="2.5"/><rect x="37.5" y="42.5" display="inline" width="2.5" height="5"/><rect x="40" y="37.5" display="inline" width="2.5" height="5"/><rect x="42.5" y="35" display="inline" width="2.5" height="2.5"/><rect x="45" y="32.5" display="inline" width="5" height="2.5"/><rect x="50" y="30" display="inline" width="5" height="2.5"/><rect x="47.5" y="12.5" display="inline" width="7.5" height="2.5"/><rect x="40" y="15" display="inline" width="7.5" height="2.5"/><rect x="35" y="17.5" display="inline" width="5" height="2.5"/><rect x="32.5" y="20" display="inline" width="2.5" height="2.5"/><rect x="30" y="22.5" display="inline" width="2.5" height="2.5"/><rect x="27.5" y="25" display="inline" width="2.5" height="2.5"/><rect x="25" y="27.5" display="inline" width="2.5" height="2.5"/><rect x="22.5" y="30" display="inline" width="2.5" height="2.5"/><rect x="20" y="32.5" display="inline" width="2.5" height="5"/><rect x="20" y="37.5" display="inline" width="2.5" height="5"/><rect x="20" y="65" display="inline" width="2.5" height="5"/><rect x="22.5" y="70" display="inline" width="2.5" height="5"/><rect x="25" y="75" display="inline" width="2.5" height="5"/><rect x="27.5" y="80" display="inline" width="2.5" height="2.5"/><rect x="30" y="82.5" display="inline" width="2.5" height="2.5"/><rect x="32.5" y="85" display="inline" width="5" height="2.5"/><rect x="37.5" y="87.5" display="inline" width="2.5" height="2.5"/><rect x="40" y="90" display="inline" width="2.5" height="2.5"/><rect x="42.5" y="90" display="inline" width="2.5" height="2.5"/></g><g><path d="M64.488,42.37L46.123,26.207c-1.649-1.452-3.28-2.188-4.845-2.188c-2.26,0-4.899,1.727-4.899,6.593v37.828   c0,4.866,2.639,6.593,4.899,6.593c1.565,0,3.196-0.736,4.845-2.188l18.365-16.163c2.146-1.89,3.329-4.431,3.329-7.155   S66.634,44.26,64.488,42.37z"/><path d="M49.962,94.772C25.169,94.772,5,74.603,5,49.811C5,25.018,25.169,4.847,49.962,4.847c24.793,0,44.963,20.171,44.963,44.964   C94.926,74.603,74.756,94.772,49.962,94.772z M49.962,9.095c-22.45,0-40.714,18.265-40.714,40.716   c0,22.449,18.265,40.714,40.714,40.714c22.45,0,40.715-18.265,40.715-40.714C90.678,27.359,72.413,9.095,49.962,9.095z"/></g><text x="0" y="115" fill="#000000" font-size="5px" font-weight="bold" font-family="'Helvetica Neue', Helvetica, Arial-Unicode, Arial, Sans-serif">Created by Universal Icons</text><text x="0" y="120" fill="#000000" font-size="5px" font-weight="bold" font-family="'Helvetica Neue', Helvetica, Arial-Unicode, Arial, Sans-serif">from the Noun Project</text></svg>