<svg xmlns="http://www.w3.org/2000/svg" xmlns:xlink="http://www.w3.org/1999/xlink" version="1.1" x="0px" y="0px" viewBox="0 0 100 125" enable-background="new 0 0 100 100" xml:space="preserve"><g display="none"><path display="inline" fill="#000000" d="M95.5,24.358L95.5,24.358c0,0.988-0.527,1.901-1.383,2.396L69.709,40.847   c-0.855,0.494-1.91,0.494-2.767,0.001c-0.854-0.494-1.383-1.407-1.383-2.396v-3.552C55.379,36.257,47.5,44.996,47.5,55.541   c0,11.48,9.342,20.82,20.822,20.82c1.527,0,2.766,1.238,2.766,2.766v14.932c0,1.527-1.237,2.766-2.766,2.766   c-22.765,0-41.285-18.52-41.285-41.283c0-21.836,17.041-39.767,38.521-41.193v-4.082c0-0.988,0.527-1.9,1.383-2.395   s1.909-0.494,2.766-0.002l24.408,14.096C94.973,22.459,95.5,23.371,95.5,24.358z M71.092,33.66l16.111-9.303l-16.111-9.304v1.966   c0,1.527-1.238,2.766-2.766,2.766c-19.717,0-35.757,16.039-35.757,35.756c0,18.783,14.56,34.23,32.988,35.646v-9.439   c-13.235-1.387-23.587-12.609-23.587-26.207c0-14.532,11.822-26.354,26.355-26.354c1.526,0,2.766,1.238,2.766,2.767V33.66z"/></g><g display="none"><rect x="32.5" y="27.5" display="inline" width="5" height="5"/><rect x="37.5" y="32.5" display="inline" width="5" height="5"/><rect x="37.5" y="27.5" display="inline" width="5" height="5"/><rect x="57.5" y="27.5" display="inline" width="5" height="5"/><rect x="57.5" y="32.5" display="inline" width="5" height="5"/><rect x="62.5" y="27.5" display="inline" width="5" height="5"/><rect x="32.5" y="52.5" display="inline" width="5" height="5"/><rect x="37.5" y="57.5" display="inline" width="5" height="5"/><rect x="42.5" y="62.5" display="inline" width="5" height="5"/><rect x="47.5" y="62.5" display="inline" width="5" height="5"/><rect x="52.5" y="62.5" display="inline" width="5" height="5"/><rect x="57.5" y="57.5" display="inline" width="5" height="5"/><rect x="62.5" y="52.5" display="inline" width="5" height="5"/><rect x="27.5" y="47.5" display="inline" width="5" height="5"/><rect x="32.5" y="47.5" display="inline" width="5" height="5"/><rect x="62.5" y="47.5" display="inline" width="5" height="5"/><rect x="67.5" y="47.5" display="inline" width="5" height="5"/><rect x="5" y="50" display="inline" width="2.5" height="2.5"/><rect x="5" y="47.5" display="inline" width="2.5" height="2.5"/><rect x="5" y="45" display="inline" width="2.5" height="2.5"/><rect x="7.5" y="42.5" display="inline" width="2.5" height="2.5"/><rect x="7.5" y="40" display="inline" width="2.5" height="2.5"/><rect x="7.5" y="37.5" display="inline" width="2.5" height="2.5"/><rect x="10" y="35" display="inline" width="2.5" height="2.5"/><rect x="10" y="32.5" display="inline" width="2.5" height="2.5"/><rect x="10" y="30" display="inline" width="2.5" height="2.5"/><rect x="12.5" y="27.5" display="inline" width="2.5" height="2.5"/><rect x="12.5" y="25" display="inline" width="2.5" height="2.5"/><rect x="15" y="22.5" display="inline" width="2.5" height="2.5"/><rect x="17.5" y="20" display="inline" width="2.5" height="2.5"/><rect x="20" y="17.5" display="inline" width="2.5" height="2.5"/><rect x="22.5" y="15" display="inline" width="2.5" height="2.5"/><rect x="25" y="12.5" display="inline" width="2.5" height="2.5"/><rect x="27.5" y="12.5" display="inline" width="2.5" height="2.5"/><rect x="30" y="10" display="inline" width="2.5" height="2.5"/><rect x="32.5" y="10" display="inline" width="2.5" height="2.5"/><rect x="35" y="7.5" display="inline" width="2.5" height="2.5"/><rect x="37.5" y="7.5" display="inline" width="2.5" height="2.5"/><rect x="40" y="7.5" display="inline" width="2.5" height="2.5"/><rect x="42.5" y="5" display="inline" width="2.5" height="2.5"/><rect x="45" y="5" display="inline" width="2.5" height="2.5"/><rect x="47.5" y="5" display="inline" width="2.5" height="2.5"/><rect x="92.5" y="50" display="inline" width="2.5" height="2.5"/><rect x="92.5" y="47.5" display="inline" width="2.5" height="2.5"/><rect x="92.5" y="45" display="inline" width="2.5" height="2.5"/><rect x="90" y="42.5" display="inline" width="2.5" height="2.5"/><rect x="90" y="40" display="inline" width="2.5" height="2.5"/><rect x="90" y="37.5" display="inline" width="2.5" height="2.5"/><rect x="87.5" y="35" display="inline" width="2.5" height="2.5"/><rect x="87.5" y="32.5" display="inline" width="2.5" height="2.5"/><rect x="87.5" y="30" display="inline" width="2.5" height="2.5"/><rect x="85" y="27.5" display="inline" width="2.5" height="2.5"/><rect x="85" y="25" display="inline" width="2.5" height="2.5"/><rect x="82.5" y="22.5" display="inline" width="2.5" height="2.5"/><rect x="80" y="20" display="inline" width="2.5" height="2.5"/><rect x="77.5" y="17.5" display="inline" width="2.5" height="2.5"/><rect x="75" y="15" display="inline" width="2.5" height="2.5"/><rect x="72.5" y="12.5" display="inline" width="2.5" height="2.5"/><rect x="70" y="12.5" display="inline" width="2.5" height="2.5"/><rect x="67.5" y="10" display="inline" width="2.5" height="2.5"/><rect x="65" y="10" display="inline" width="2.5" height="2.5"/><rect x="62.5" y="7.5" display="inline" width="2.5" height="2.5"/><rect x="60" y="7.5" display="inline" width="2.5" height="2.5"/><rect x="57.5" y="7.5" display="inline" width="2.5" height="2.5"/><rect x="55" y="5" display="inline" width="2.5" height="2.5"/><rect x="52.5" y="5" display="inline" width="2.5" height="2.5"/><rect x="50" y="5" display="inline" width="2.5" height="2.5"/><rect x="5" y="47.5" display="inline" width="2.5" height="2.5"/><rect x="5" y="50" display="inline" width="2.5" height="2.5"/><rect x="5" y="52.5" display="inline" width="2.5" height="2.5"/><rect x="7.5" y="55" display="inline" width="2.5" height="2.5"/><rect x="7.5" y="57.5" display="inline" width="2.5" height="2.5"/><rect x="7.5" y="60" display="inline" width="2.5" height="2.5"/><rect x="10" y="62.5" display="inline" width="2.5" height="2.5"/><rect x="10" y="65" display="inline" width="2.5" height="2.5"/><rect x="10" y="67.5" display="inline" width="2.5" height="2.5"/><rect x="12.5" y="70" display="inline" width="2.5" height="2.5"/><rect x="12.5" y="72.5" display="inline" width="2.5" height="2.5"/><rect x="15" y="75" display="inline" width="2.5" height="2.5"/><rect x="17.5" y="77.5" display="inline" width="2.5" height="2.5"/><rect x="20" y="80" display="inline" width="2.5" height="2.5"/><rect x="22.5" y="82.5" display="inline" width="2.5" height="2.5"/><rect x="25" y="85" display="inline" width="2.5" height="2.5"/><rect x="27.5" y="85" display="inline" width="2.5" height="2.5"/><rect x="30" y="87.5" display="inline" width="2.5" height="2.5"/><rect x="32.5" y="87.5" display="inline" width="2.5" height="2.5"/><rect x="35" y="90" display="inline" width="2.5" height="2.5"/><rect x="37.5" y="90" display="inline" width="2.5" height="2.5"/><rect x="40" y="90" display="inline" width="2.5" height="2.5"/><rect x="42.5" y="92.5" display="inline" width="2.5" height="2.5"/><rect x="45" y="92.5" display="inline" width="2.5" height="2.5"/><rect x="47.5" y="92.5" display="inline" width="2.5" height="2.5"/><rect x="92.5" y="47.5" display="inline" width="2.5" height="2.5"/><rect x="92.5" y="50" display="inline" width="2.5" height="2.5"/><rect x="92.5" y="52.5" display="inline" width="2.5" height="2.5"/><rect x="90" y="55" display="inline" width="2.5" height="2.5"/><rect x="90" y="57.5" display="inline" width="2.5" height="2.5"/><rect x="90" y="60" display="inline" width="2.5" height="2.5"/><rect x="87.5" y="62.5" display="inline" width="2.5" height="2.5"/><rect x="87.5" y="65" display="inline" width="2.5" height="2.5"/><rect x="87.5" y="67.5" display="inline" width="2.5" height="2.5"/><rect x="85" y="70" display="inline" width="2.5" height="2.5"/><rect x="85" y="72.5" display="inline" width="2.5" height="2.5"/><rect x="82.5" y="75" display="inline" width="2.5" height="2.5"/><rect x="80" y="77.5" display="inline" width="2.5" height="2.5"/><rect x="77.5" y="80" display="inline" width="2.5" height="2.5"/><rect x="75" y="82.5" display="inline" width="2.5" height="2.5"/><rect x="72.5" y="85" display="inline" width="2.5" height="2.5"/><rect x="70" y="85" display="inline" width="2.5" height="2.5"/><rect x="67.5" y="87.5" display="inline" width="2.5" height="2.5"/><rect x="65" y="87.5" display="inline" width="2.5" height="2.5"/><rect x="62.5" y="90" display="inline" width="2.5" height="2.5"/><rect x="60" y="90" display="inline" width="2.5" height="2.5"/><rect x="57.5" y="90" display="inline" width="2.5" height="2.5"/><rect x="90" y="50" display="inline" width="2.5" height="2.5"/><rect x="90" y="47.5" display="inline" width="2.5" height="2.5"/><rect x="90" y="45" display="inline" width="2.5" height="2.5"/><rect x="87.5" y="42.5" display="inline" width="2.5" height="2.5"/><rect x="87.5" y="40" display="inline" width="2.5" height="2.5"/><rect x="87.5" y="37.5" display="inline" width="2.5" height="2.5"/><rect x="85" y="35" display="inline" width="2.5" height="2.5"/><rect x="85" y="32.5" display="inline" width="2.5" height="2.5"/><rect x="85" y="30" display="inline" width="2.5" height="2.5"/><rect x="82.5" y="27.5" display="inline" width="2.5" height="2.5"/><rect x="82.5" y="25" display="inline" width="2.5" height="2.5"/><rect x="80" y="22.5" display="inline" width="2.5" height="2.5"/><rect x="77.5" y="20" display="inline" width="2.5" height="2.5"/><rect x="75" y="17.5" display="inline" width="2.5" height="2.5"/><rect x="72.5" y="15" display="inline" width="2.5" height="2.5"/><rect x="70" y="12.5" display="inline" width="2.5" height="2.5"/><rect x="67.5" y="12.5" display="inline" width="2.5" height="2.5"/><rect x="65" y="10" display="inline" width="2.5" height="2.5"/><rect x="62.5" y="10" display="inline" width="2.5" height="2.5"/><rect x="60" y="7.5" display="inline" width="2.5" height="2.5"/><rect x="57.5" y="7.5" display="inline" width="2.5" height="2.5"/><rect x="55" y="7.5" display="inline" width="2.5" height="2.5"/><rect x="90" y="47.5" display="inline" width="2.5" height="2.5"/><rect x="90" y="50" display="inline" width="2.5" height="2.5"/><rect x="90" y="52.5" display="inline" width="2.5" height="2.5"/><rect x="87.5" y="55" display="inline" width="2.5" height="2.5"/><rect x="87.5" y="57.5" display="inline" width="2.5" height="2.5"/><rect x="87.5" y="60" display="inline" width="2.5" height="2.5"/><rect x="85" y="62.5" display="inline" width="2.5" height="2.5"/><rect x="85" y="65" display="inline" width="2.5" height="2.5"/><rect x="85" y="67.5" display="inline" width="2.5" height="2.5"/><rect x="82.5" y="70" display="inline" width="2.5" height="2.5"/><rect x="82.5" y="72.5" display="inline" width="2.5" height="2.5"/><rect x="80" y="75" display="inline" width="2.5" height="2.5"/><rect x="77.5" y="77.5" display="inline" width="2.5" height="2.5"/><rect x="72.5" y="82.5" display="inline" width="2.5" height="2.5"/><rect x="70" y="85" display="inline" width="2.5" height="2.5"/><rect x="67.5" y="85" display="inline" width="2.5" height="2.5"/><rect x="65" y="87.5" display="inline" width="2.5" height="2.5"/><rect x="62.5" y="87.5" display="inline" width="2.5" height="2.5"/><rect x="60" y="90" display="inline" width="2.5" height="2.5"/><rect x="57.5" y="90" display="inline" width="2.5" height="2.5"/><rect x="55" y="90" display="inline" width="2.5" height="2.5"/><rect x="55" y="92.5" display="inline" width="2.5" height="2.5"/><rect x="52.5" y="92.5" display="inline" width="2.5" height="2.5"/><rect x="50" y="92.5" display="inline" width="2.5" height="2.5"/><rect x="7.5" y="50" display="inline" width="2.5" height="2.5"/><rect x="7.5" y="47.5" display="inline" width="2.5" height="2.5"/><rect x="7.5" y="45" display="inline" width="2.5" height="2.5"/><rect x="10" y="42.5" display="inline" width="2.5" height="2.5"/><rect x="10" y="40" display="inline" width="2.5" height="2.5"/><rect x="10" y="37.5" display="inline" width="2.5" height="2.5"/><rect x="12.5" y="35" display="inline" width="2.5" height="2.5"/><rect x="12.5" y="32.5" display="inline" width="2.5" height="2.5"/><rect x="12.5" y="30" display="inline" width="2.5" height="2.5"/><rect x="15" y="27.5" display="inline" width="2.5" height="2.5"/><rect x="15" y="25" display="inline" width="2.5" height="2.5"/><rect x="17.5" y="22.5" display="inline" width="2.5" height="2.5"/><rect x="20" y="20" display="inline" width="2.5" height="2.5"/><rect x="22.5" y="17.5" display="inline" width="2.5" height="2.5"/><rect x="25" y="15" display="inline" width="2.5" height="2.5"/><rect x="27.5" y="12.5" display="inline" width="2.5" height="2.5"/><rect x="30" y="12.5" display="inline" width="2.5" height="2.5"/><rect x="32.5" y="10" display="inline" width="2.5" height="2.5"/><rect x="35" y="10" display="inline" width="2.5" height="2.5"/><rect x="37.5" y="7.5" display="inline" width="2.5" height="2.5"/><rect x="40" y="7.5" display="inline" width="2.5" height="2.5"/><rect x="42.5" y="7.5" display="inline" width="2.5" height="2.5"/><rect x="45" y="5" display="inline" width="2.5" height="2.5"/><rect x="47.5" y="5" display="inline" width="2.5" height="2.5"/><rect x="50" y="5" display="inline" width="2.5" height="2.5"/><rect x="52.5" y="5" display="inline" width="2.5" height="2.5"/><rect x="45" y="7.5" display="inline" width="2.5" height="2.5"/><rect x="47.5" y="7.5" display="inline" width="2.5" height="2.5"/><rect x="50" y="7.5" display="inline" width="2.5" height="2.5"/><rect x="52.5" y="7.5" display="inline" width="2.5" height="2.5"/><rect x="7.5" y="47.5" display="inline" width="2.5" height="2.5"/><rect x="7.5" y="50" display="inline" width="2.5" height="2.5"/><rect x="7.5" y="52.5" display="inline" width="2.5" height="2.5"/><rect x="10" y="55" display="inline" width="2.5" height="2.5"/><rect x="10" y="57.5" display="inline" width="2.5" height="2.5"/><rect x="10" y="60" display="inline" width="2.5" height="2.5"/><rect x="12.5" y="62.5" display="inline" width="2.5" height="2.5"/><rect x="12.5" y="65" display="inline" width="2.5" height="2.5"/><rect x="12.5" y="67.5" display="inline" width="2.5" height="2.5"/><rect x="15" y="70" display="inline" width="2.5" height="2.5"/><rect x="15" y="72.5" display="inline" width="2.5" height="2.5"/><rect x="17.5" y="75" display="inline" width="2.5" height="2.5"/><rect x="22.5" y="80" display="inline" width="2.5" height="2.5"/><rect x="25" y="82.5" display="inline" width="2.5" height="2.5"/><rect x="27.5" y="85" display="inline" width="2.5" height="2.5"/><rect x="30" y="85" display="inline" width="2.5" height="2.5"/><rect x="32.5" y="87.5" display="inline" width="2.5" height="2.5"/><rect x="35" y="87.5" display="inline" width="2.5" height="2.5"/><rect x="37.5" y="90" display="inline" width="2.5" height="2.5"/><rect x="40" y="90" display="inline" width="2.5" height="2.5"/><rect x="42.5" y="90" display="inline" width="2.5" height="2.5"/><rect x="45" y="92.5" display="inline" width="2.5" height="2.5"/><rect x="47.5" y="92.5" display="inline" width="2.5" height="2.5"/><rect x="50" y="92.5" display="inline" width="2.5" height="2.5"/><rect x="52.5" y="92.5" display="inline" width="2.5" height="2.5"/><rect x="42.5" y="90" display="inline" width="2.5" height="2.5"/><rect x="45" y="90" display="inline" width="2.5" height="2.5"/><rect x="47.5" y="90" display="inline" width="2.5" height="2.5"/><rect x="50" y="90" display="inline" width="2.5" height="2.5"/><rect x="45" y="90" display="inline" width="2.5" height="2.5"/><rect x="47.5" y="90" display="inline" width="2.5" height="2.5"/><rect x="50" y="90" display="inline" width="2.5" height="2.5"/><rect x="52.5" y="90" display="inline" width="2.5" height="2.5"/></g><g><path d="M5.037,49.811C5.037,25.018,25.207,4.847,50,4.847c24.793,0,44.962,20.171,44.962,44.964   c0,24.792-20.169,44.962-44.962,44.962C25.207,94.772,5.037,74.603,5.037,49.811z M9.285,49.811   C9.285,72.26,27.55,90.524,50,90.524c22.45,0,40.714-18.265,40.714-40.714C90.715,27.359,72.45,9.095,50,9.095   C27.55,9.095,9.285,27.359,9.285,49.811z"/><path d="M62.313,24.019c-1.565,0-3.196,0.736-4.845,2.188L39.324,42.176V30.713c0-3.711-3.102-6.73-6.914-6.73h-2.305   c-3.813,0-6.914,3.02-6.914,6.73v37.49c0,3.711,3.102,6.73,6.914,6.73h2.305c3.813,0,6.914-3.02,6.914-6.73V56.875l18.144,15.969   c1.649,1.453,3.28,2.189,4.846,2.189c2.26,0,4.899-1.728,4.899-6.594V30.611C67.213,25.745,64.574,24.019,62.313,24.019z"/></g><text x="0" y="115" fill="#000000" font-size="5px" font-weight="bold" font-family="'Helvetica Neue', Helvetica, Arial-Unicode, Arial, Sans-serif">Created by Universal Icons</text><text x="0" y="120" fill="#000000" font-size="5px" font-weight="bold" font-family="'Helvetica Neue', Helvetica, Arial-Unicode, Arial, Sans-serif">from the Noun Project</text></svg>