<svg xmlns="http://www.w3.org/2000/svg" xmlns:xlink="http://www.w3.org/1999/xlink" version="1.1" x="0px" y="0px" viewBox="0 0 100 125" enable-background="new 0 0 100 100" xml:space="preserve"><g display="none"><rect x="32.5" y="27.5" display="inline" width="5" height="5"/><rect x="37.5" y="32.5" display="inline" width="5" height="5"/><rect x="37.5" y="27.5" display="inline" width="5" height="5"/><rect x="57.5" y="27.5" display="inline" width="5" height="5"/><rect x="57.5" y="32.5" display="inline" width="5" height="5"/><rect x="62.5" y="27.5" display="inline" width="5" height="5"/><rect x="62.5" y="57.5" display="inline" width="5" height="5"/><rect x="57.5" y="57.5" display="inline" width="5" height="5"/><rect x="52.5" y="57.5" display="inline" width="5" height="5"/><rect x="47.5" y="57.5" display="inline" width="5" height="5"/><rect x="42.5" y="57.5" display="inline" width="5" height="5"/><rect x="37.5" y="57.5" display="inline" width="5" height="5"/><rect x="32.5" y="52.5" display="inline" width="5" height="5"/><rect x="5" y="50" display="inline" width="2.5" height="2.5"/><rect x="5" y="47.5" display="inline" width="2.5" height="2.5"/><rect x="5" y="45" display="inline" width="2.5" height="2.5"/><rect x="7.5" y="42.5" display="inline" width="2.5" height="2.5"/><rect x="7.5" y="40" display="inline" width="2.5" height="2.5"/><rect x="7.5" y="37.5" display="inline" width="2.5" height="2.5"/><rect x="10" y="35" display="inline" width="2.5" height="2.5"/><rect x="10" y="32.5" display="inline" width="2.5" height="2.5"/><rect x="10" y="30" display="inline" width="2.5" height="2.5"/><rect x="12.5" y="27.5" display="inline" width="2.5" height="2.5"/><rect x="12.5" y="25" display="inline" width="2.5" height="2.5"/><rect x="15" y="22.5" display="inline" width="2.5" height="2.5"/><rect x="17.5" y="20" display="inline" width="2.5" height="2.5"/><rect x="20" y="17.5" display="inline" width="2.5" height="2.5"/><rect x="22.5" y="15" display="inline" width="2.5" height="2.5"/><rect x="25" y="12.5" display="inline" width="2.5" height="2.5"/><rect x="27.5" y="12.5" display="inline" width="2.5" height="2.5"/><rect x="30" y="10" display="inline" width="2.5" height="2.5"/><rect x="32.5" y="10" display="inline" width="2.5" height="2.5"/><rect x="35" y="7.5" display="inline" width="2.5" height="2.5"/><rect x="37.5" y="7.5" display="inline" width="2.5" height="2.5"/><rect x="40" y="7.5" display="inline" width="2.5" height="2.5"/><rect x="42.5" y="5" display="inline" width="2.5" height="2.5"/><rect x="45" y="5" display="inline" width="2.5" height="2.5"/><rect x="47.5" y="5" display="inline" width="2.5" height="2.5"/><rect x="92.5" y="50" display="inline" width="2.5" height="2.5"/><rect x="92.5" y="47.5" display="inline" width="2.5" height="2.5"/><rect x="92.5" y="45" display="inline" width="2.5" height="2.5"/><rect x="90" y="42.5" display="inline" width="2.5" height="2.5"/><rect x="90" y="40" display="inline" width="2.5" height="2.5"/><rect x="90" y="37.5" display="inline" width="2.5" height="2.5"/><rect x="87.5" y="35" display="inline" width="2.5" height="2.5"/><rect x="87.5" y="32.5" display="inline" width="2.5" height="2.5"/><rect x="87.5" y="30" display="inline" width="2.5" height="2.5"/><rect x="85" y="27.5" display="inline" width="2.5" height="2.5"/><rect x="85" y="25" display="inline" width="2.5" height="2.5"/><rect x="82.5" y="22.5" display="inline" width="2.5" height="2.5"/><rect x="80" y="20" display="inline" width="2.5" height="2.5"/><rect x="77.5" y="17.5" display="inline" width="2.5" height="2.5"/><rect x="75" y="15" display="inline" width="2.5" height="2.5"/><rect x="72.5" y="12.5" display="inline" width="2.5" height="2.5"/><rect x="70" y="12.5" display="inline" width="2.5" height="2.5"/><rect x="67.5" y="10" display="inline" width="2.5" height="2.5"/><rect x="65" y="10" display="inline" width="2.5" height="2.5"/><rect x="62.5" y="7.5" display="inline" width="2.5" height="2.5"/><rect x="60" y="7.5" display="inline" width="2.5" height="2.5"/><rect x="57.5" y="7.5" display="inline" width="2.5" height="2.5"/><rect x="55" y="5" display="inline" width="2.5" height="2.5"/><rect x="52.5" y="5" display="inline" width="2.5" height="2.5"/><rect x="50" y="5" display="inline" width="2.5" height="2.5"/><rect x="5" y="47.5" display="inline" width="2.5" height="2.5"/><rect x="5" y="50" display="inline" width="2.5" height="2.5"/><rect x="5" y="52.5" display="inline" width="2.5" height="2.5"/><rect x="7.5" y="55" display="inline" width="2.5" height="2.5"/><rect x="7.5" y="57.5" display="inline" width="2.5" height="2.5"/><rect x="7.5" y="60" display="inline" width="2.5" height="2.5"/><rect x="10" y="62.5" display="inline" width="2.5" height="2.5"/><rect x="10" y="65" display="inline" width="2.5" height="2.5"/><rect x="10" y="67.5" display="inline" width="2.5" height="2.5"/><rect x="12.5" y="70" display="inline" width="2.5" height="2.5"/><rect x="12.5" y="72.5" display="inline" width="2.5" height="2.5"/><rect x="15" y="75" display="inline" width="2.5" height="2.5"/><rect x="17.5" y="77.5" display="inline" width="2.5" height="2.5"/><rect x="20" y="80" display="inline" width="2.5" height="2.5"/><rect x="22.5" y="82.5" display="inline" width="2.5" height="2.5"/><rect x="25" y="85" display="inline" width="2.5" height="2.5"/><rect x="27.5" y="85" display="inline" width="2.5" height="2.5"/><rect x="30" y="87.5" display="inline" width="2.5" height="2.5"/><rect x="32.5" y="87.5" display="inline" width="2.5" height="2.5"/><rect x="35" y="90" display="inline" width="2.5" height="2.5"/><rect x="37.5" y="90" display="inline" width="2.5" height="2.5"/><rect x="40" y="90" display="inline" width="2.5" height="2.5"/><rect x="42.5" y="92.5" display="inline" width="2.5" height="2.5"/><rect x="45" y="92.5" display="inline" width="2.5" height="2.5"/><rect x="47.5" y="92.5" display="inline" width="2.5" height="2.5"/><rect x="92.5" y="47.5" display="inline" width="2.5" height="2.5"/><rect x="92.5" y="50" display="inline" width="2.5" height="2.5"/><rect x="92.5" y="52.5" display="inline" width="2.5" height="2.5"/><rect x="90" y="55" display="inline" width="2.5" height="2.5"/><rect x="90" y="57.5" display="inline" width="2.5" height="2.5"/><rect x="90" y="60" display="inline" width="2.5" height="2.5"/><rect x="87.5" y="62.5" display="inline" width="2.5" height="2.5"/><rect x="87.5" y="65" display="inline" width="2.5" height="2.5"/><rect x="87.5" y="67.5" display="inline" width="2.5" height="2.5"/><rect x="85" y="70" display="inline" width="2.5" height="2.5"/><rect x="85" y="72.5" display="inline" width="2.5" height="2.5"/><rect x="82.5" y="75" display="inline" width="2.5" height="2.5"/><rect x="80" y="77.5" display="inline" width="2.5" height="2.5"/><rect x="77.5" y="80" display="inline" width="2.5" height="2.5"/><rect x="75" y="82.5" display="inline" width="2.5" height="2.5"/><rect x="72.5" y="85" display="inline" width="2.5" height="2.5"/><rect x="70" y="85" display="inline" width="2.5" height="2.5"/><rect x="67.5" y="87.5" display="inline" width="2.5" height="2.5"/><rect x="65" y="87.5" display="inline" width="2.5" height="2.5"/><rect x="62.5" y="90" display="inline" width="2.5" height="2.5"/><rect x="60" y="90" display="inline" width="2.5" height="2.5"/><rect x="57.5" y="90" display="inline" width="2.5" height="2.5"/><rect x="90" y="50" display="inline" width="2.5" height="2.5"/><rect x="90" y="47.5" display="inline" width="2.5" height="2.5"/><rect x="90" y="45" display="inline" width="2.5" height="2.5"/><rect x="87.5" y="42.5" display="inline" width="2.5" height="2.5"/><rect x="87.5" y="40" display="inline" width="2.5" height="2.5"/><rect x="87.5" y="37.5" display="inline" width="2.5" height="2.5"/><rect x="85" y="35" display="inline" width="2.5" height="2.5"/><rect x="85" y="32.5" display="inline" width="2.5" height="2.5"/><rect x="85" y="30" display="inline" width="2.5" height="2.5"/><rect x="82.5" y="27.5" display="inline" width="2.5" height="2.5"/><rect x="82.5" y="25" display="inline" width="2.5" height="2.5"/><rect x="80" y="22.5" display="inline" width="2.5" height="2.5"/><rect x="77.5" y="20" display="inline" width="2.5" height="2.5"/><rect x="75" y="17.5" display="inline" width="2.5" height="2.5"/><rect x="72.5" y="15" display="inline" width="2.5" height="2.5"/><rect x="70" y="12.5" display="inline" width="2.5" height="2.5"/><rect x="67.5" y="12.5" display="inline" width="2.5" height="2.5"/><rect x="65" y="10" display="inline" width="2.5" height="2.5"/><rect x="62.5" y="10" display="inline" width="2.5" height="2.5"/><rect x="60" y="7.5" display="inline" width="2.5" height="2.5"/><rect x="57.5" y="7.5" display="inline" width="2.5" height="2.5"/><rect x="55" y="7.5" display="inline" width="2.5" height="2.5"/><rect x="90" y="47.5" display="inline" width="2.5" height="2.5"/><rect x="90" y="50" display="inline" width="2.5" height="2.5"/><rect x="90" y="52.5" display="inline" width="2.5" height="2.5"/><rect x="87.5" y="55" display="inline" width="2.5" height="2.5"/><rect x="87.5" y="57.5" display="inline" width="2.5" height="2.5"/><rect x="87.5" y="60" display="inline" width="2.5" height="2.5"/><rect x="85" y="62.5" display="inline" width="2.5" height="2.5"/><rect x="85" y="65" display="inline" width="2.5" height="2.5"/><rect x="85" y="67.5" display="inline" width="2.5" height="2.5"/><rect x="82.5" y="70" display="inline" width="2.5" height="2.5"/><rect x="82.5" y="72.5" display="inline" width="2.5" height="2.5"/><rect x="80" y="75" display="inline" width="2.5" height="2.5"/><rect x="77.5" y="77.5" display="inline" width="2.5" height="2.5"/><rect x="75" y="80" display="inline" width="2.5" height="2.5"/><rect x="72.5" y="82.5" display="inline" width="2.5" height="2.5"/><rect x="70" y="85" display="inline" width="2.5" height="2.5"/><rect x="67.5" y="85" display="inline" width="2.5" height="2.5"/><rect x="65" y="87.5" display="inline" width="2.5" height="2.5"/><rect x="62.5" y="87.5" display="inline" width="2.5" height="2.5"/><rect x="60" y="90" display="inline" width="2.5" height="2.5"/><rect x="57.5" y="90" display="inline" width="2.5" height="2.5"/><rect x="55" y="90" display="inline" width="2.5" height="2.5"/><rect x="55" y="92.5" display="inline" width="2.5" height="2.5"/><rect x="52.5" y="92.5" display="inline" width="2.5" height="2.5"/><rect x="50" y="92.5" display="inline" width="2.5" height="2.5"/><rect x="7.5" y="50" display="inline" width="2.5" height="2.5"/><rect x="7.5" y="47.5" display="inline" width="2.5" height="2.5"/><rect x="7.5" y="45" display="inline" width="2.5" height="2.5"/><rect x="10" y="42.5" display="inline" width="2.5" height="2.5"/><rect x="10" y="40" display="inline" width="2.5" height="2.5"/><rect x="10" y="37.5" display="inline" width="2.5" height="2.5"/><rect x="12.5" y="35" display="inline" width="2.5" height="2.5"/><rect x="12.5" y="32.5" display="inline" width="2.5" height="2.5"/><rect x="12.5" y="30" display="inline" width="2.5" height="2.5"/><rect x="15" y="27.5" display="inline" width="2.5" height="2.5"/><rect x="15" y="25" display="inline" width="2.5" height="2.5"/><rect x="17.5" y="22.5" display="inline" width="2.5" height="2.5"/><rect x="20" y="20" display="inline" width="2.5" height="2.5"/><rect x="22.5" y="17.5" display="inline" width="2.5" height="2.5"/><rect x="25" y="15" display="inline" width="2.5" height="2.5"/><rect x="27.5" y="12.5" display="inline" width="2.5" height="2.5"/><rect x="30" y="12.5" display="inline" width="2.5" height="2.5"/><rect x="32.5" y="10" display="inline" width="2.5" height="2.5"/><rect x="35" y="10" display="inline" width="2.5" height="2.5"/><rect x="37.5" y="7.5" display="inline" width="2.5" height="2.5"/><rect x="40" y="7.5" display="inline" width="2.5" height="2.5"/><rect x="42.5" y="7.5" display="inline" width="2.5" height="2.5"/><rect x="45" y="5" display="inline" width="2.5" height="2.5"/><rect x="47.5" y="5" display="inline" width="2.5" height="2.5"/><rect x="50" y="5" display="inline" width="2.5" height="2.5"/><rect x="52.5" y="5" display="inline" width="2.5" height="2.5"/><rect x="45" y="7.5" display="inline" width="2.5" height="2.5"/><rect x="47.5" y="7.5" display="inline" width="2.5" height="2.5"/><rect x="50" y="7.5" display="inline" width="2.5" height="2.5"/><rect x="52.5" y="7.5" display="inline" width="2.5" height="2.5"/><rect x="7.5" y="47.5" display="inline" width="2.5" height="2.5"/><rect x="7.5" y="50" display="inline" width="2.5" height="2.5"/><rect x="7.5" y="52.5" display="inline" width="2.5" height="2.5"/><rect x="10" y="55" display="inline" width="2.5" height="2.5"/><rect x="10" y="57.5" display="inline" width="2.5" height="2.5"/><rect x="10" y="60" display="inline" width="2.5" height="2.5"/><rect x="12.5" y="62.5" display="inline" width="2.5" height="2.5"/><rect x="12.5" y="65" display="inline" width="2.5" height="2.5"/><rect x="12.5" y="67.5" display="inline" width="2.5" height="2.5"/><rect x="15" y="70" display="inline" width="2.5" height="2.5"/><rect x="15" y="72.5" display="inline" width="2.5" height="2.5"/><rect x="17.5" y="75" display="inline" width="2.5" height="2.5"/><rect x="20" y="77.5" display="inline" width="2.5" height="2.5"/><rect x="22.5" y="80" display="inline" width="2.5" height="2.5"/><rect x="25" y="82.5" display="inline" width="2.5" height="2.5"/><rect x="27.5" y="85" display="inline" width="2.5" height="2.5"/><rect x="30" y="85" display="inline" width="2.5" height="2.5"/><rect x="32.5" y="87.5" display="inline" width="2.5" height="2.5"/><rect x="35" y="87.5" display="inline" width="2.5" height="2.5"/><rect x="37.5" y="90" display="inline" width="2.5" height="2.5"/><rect x="40" y="90" display="inline" width="2.5" height="2.5"/><rect x="42.5" y="90" display="inline" width="2.5" height="2.5"/><rect x="45" y="92.5" display="inline" width="2.5" height="2.5"/><rect x="47.5" y="92.5" display="inline" width="2.5" height="2.5"/><rect x="50" y="92.5" display="inline" width="2.5" height="2.5"/><rect x="52.5" y="92.5" display="inline" width="2.5" height="2.5"/><rect x="42.5" y="90" display="inline" width="2.5" height="2.5"/><rect x="45" y="90" display="inline" width="2.5" height="2.5"/><rect x="47.5" y="90" display="inline" width="2.5" height="2.5"/><rect x="50" y="90" display="inline" width="2.5" height="2.5"/><rect x="45" y="90" display="inline" width="2.5" height="2.5"/><rect x="47.5" y="90" display="inline" width="2.5" height="2.5"/><rect x="50" y="90" display="inline" width="2.5" height="2.5"/><rect x="52.5" y="90" display="inline" width="2.5" height="2.5"/></g><g><path d="M50,95.069c-24.793,0-44.963-20.17-44.963-44.962C5.037,25.314,25.207,5.144,50,5.144s44.963,20.171,44.963,44.964   C94.963,74.899,74.793,95.069,50,95.069z M50,9.392c-22.449,0-40.715,18.266-40.715,40.716c0,22.449,18.266,40.714,40.715,40.714   c22.451,0,40.715-18.265,40.715-40.714C90.715,27.657,72.451,9.392,50,9.392z"/><path d="M68.764,29.682l-5.709-10.668c-0.521-0.973-1.735-1.341-2.707-0.818c-0.975,0.521-1.341,1.732-0.82,2.707l4.134,7.723   H24.666c-3.859,0-7,3.141-7,7v30c0,3.859,3.141,7,7,7h2.91l-0.565-1.057c-0.315-0.59-0.315-1.297,0-1.887l0.565-1.057h-2.91   c-1.654,0-3-1.346-3-3v-30c0-1.654,1.346-3,3-3h38.995l-4.134,7.723c-0.521,0.975-0.154,2.187,0.82,2.707   c0.3,0.162,0.623,0.238,0.941,0.238c0.714,0,1.405-0.384,1.766-1.057l5.709-10.668C69.079,30.979,69.079,30.271,68.764,29.682z"/><path d="M75.666,28.625h-3.468l0.565,1.057c0.315,0.59,0.315,1.297,0,1.887l-0.565,1.057h3.468c1.654,0,3,1.346,3,3v30   c0,1.654-1.346,3-3,3H35.613l4.134-7.723c0.521-0.975,0.154-2.187-0.82-2.707c-0.972-0.523-2.186-0.154-2.707,0.818l-5.709,10.668   c-0.315,0.59-0.315,1.297,0,1.887l5.709,10.668c0.36,0.673,1.052,1.057,1.766,1.057c0.318,0,0.642-0.076,0.941-0.238   c0.975-0.521,1.341-1.732,0.82-2.707l-4.134-7.723h40.053c3.859,0,7-3.141,7-7v-30C82.666,31.766,79.525,28.625,75.666,28.625z"/></g><text x="0" y="115" fill="#000000" font-size="5px" font-weight="bold" font-family="'Helvetica Neue', Helvetica, Arial-Unicode, Arial, Sans-serif">Created by Universal Icons</text><text x="0" y="120" fill="#000000" font-size="5px" font-weight="bold" font-family="'Helvetica Neue', Helvetica, Arial-Unicode, Arial, Sans-serif">from the Noun Project</text></svg>