<svg xmlns="http://www.w3.org/2000/svg" xmlns:xlink="http://www.w3.org/1999/xlink" version="1.1" x="0px" y="0px" viewBox="0 0 100 125" enable-background="new 0 0 100 100" xml:space="preserve"><g display="none"><rect x="15" y="20" display="inline" width="10" height="10"/><rect x="25" y="30" display="inline" width="10" height="10"/><rect x="25" y="20" display="inline" width="10" height="10"/><rect x="65" y="20" display="inline" width="10" height="10"/><rect x="65" y="30" display="inline" width="10" height="10"/><rect x="75" y="20" display="inline" width="10" height="10"/><rect x="75" y="70" display="inline" width="10" height="10"/><rect x="65" y="70" display="inline" width="10" height="10"/><rect x="55" y="70" display="inline" width="10" height="10"/><rect x="45" y="70" display="inline" width="10" height="10"/><rect x="35" y="70" display="inline" width="10" height="10"/><rect x="25" y="70" display="inline" width="10" height="10"/><rect x="15" y="60" display="inline" width="10" height="10"/></g><g><path d="M49.536,95.069c-24.793,0-44.963-20.17-44.963-44.962c0-24.793,20.17-44.964,44.963-44.964s44.963,20.171,44.963,44.964   C94.499,74.899,74.329,95.069,49.536,95.069z M49.536,9.392c-22.449,0-40.715,18.266-40.715,40.716   c0,22.449,18.266,40.714,40.715,40.714c22.451,0,40.715-18.265,40.715-40.714C90.251,27.657,71.987,9.392,49.536,9.392z"/><g><path d="M17.5,34.708h4.194c3.507,0,6.425,1.088,9.183,3.423l10.872,9.209l1.957-1.658l1.138-0.964l-11.382-9.64    c-3.473-2.94-7.322-4.37-11.768-4.37H17.5c-1.104,0-2,0.896-2,2S16.396,34.708,17.5,34.708z"/></g><path d="M78.27,33.622c0.021-0.038,0.045-0.075,0.063-0.114c0.009-0.021,0.016-0.045,0.025-0.066   c0.021-0.055,0.036-0.111,0.053-0.168c0.014-0.047,0.032-0.094,0.043-0.142c0.004-0.021,0.007-0.042,0.011-0.063   c0.01-0.055,0.013-0.111,0.019-0.168c0.006-0.055,0.014-0.108,0.015-0.163c0-0.01,0.003-0.019,0.003-0.029s-0.003-0.02-0.003-0.029   c-0.001-0.055-0.009-0.108-0.015-0.163c-0.006-0.057-0.009-0.113-0.019-0.168c-0.004-0.021-0.007-0.043-0.011-0.063   c-0.011-0.048-0.029-0.095-0.043-0.142c-0.017-0.057-0.031-0.113-0.053-0.168c-0.01-0.021-0.017-0.045-0.025-0.066   c-0.018-0.039-0.042-0.076-0.063-0.114c-0.028-0.056-0.056-0.112-0.09-0.165c-0.015-0.022-0.028-0.045-0.044-0.066   c-0.005-0.008-0.008-0.016-0.014-0.023l-7.209-10c-0.645-0.896-1.894-1.099-2.792-0.453c-0.896,0.646-1.099,1.896-0.452,2.791   l4.97,6.895c-3.803,0.297-7.163,1.711-10.229,4.307L46.644,48.432L30.878,61.785c-2.759,2.335-5.677,3.423-9.184,3.423H17.5   c-1.104,0-2,0.896-2,2s0.896,2,2,2h4.194c4.445,0,8.295-1.43,11.769-4.37l15.767-13.354l15.766-13.354   c2.312-1.957,4.74-3.026,7.528-3.325l-4.854,6.733c-0.646,0.896-0.443,2.146,0.452,2.791c0.354,0.256,0.763,0.378,1.168,0.378   c0.621,0,1.233-0.288,1.624-0.831l7.209-10c0.006-0.008,0.009-0.016,0.014-0.023c0.016-0.021,0.029-0.044,0.044-0.066   C78.214,33.734,78.241,33.678,78.27,33.622z"/><path d="M78.27,68.122c0.021-0.038,0.045-0.075,0.063-0.114c0.009-0.021,0.016-0.045,0.025-0.066   c0.021-0.055,0.036-0.111,0.053-0.168c0.014-0.047,0.032-0.094,0.043-0.142c0.004-0.021,0.007-0.042,0.011-0.063   c0.01-0.055,0.013-0.111,0.019-0.168c0.006-0.055,0.014-0.108,0.015-0.163c0-0.01,0.003-0.019,0.003-0.029s-0.003-0.02-0.003-0.029   c-0.001-0.055-0.009-0.108-0.015-0.163c-0.006-0.057-0.009-0.113-0.019-0.168c-0.004-0.021-0.007-0.043-0.011-0.063   c-0.011-0.048-0.029-0.095-0.043-0.142c-0.017-0.057-0.031-0.113-0.053-0.168c-0.01-0.021-0.017-0.045-0.025-0.066   c-0.018-0.039-0.042-0.076-0.063-0.114c-0.028-0.056-0.056-0.112-0.09-0.165c-0.015-0.022-0.028-0.045-0.044-0.066   c-0.005-0.008-0.008-0.016-0.014-0.023l-7.209-10c-0.645-0.896-1.894-1.1-2.792-0.453c-0.896,0.646-1.099,1.896-0.452,2.791   l4.854,6.733c-2.788-0.299-5.217-1.368-7.527-3.325l-10.855-9.193l-1.755,1.486l-1.34,1.135l11.365,9.625   c3.065,2.596,6.425,4.01,10.228,4.307l-4.97,6.895c-0.646,0.896-0.443,2.146,0.452,2.791c0.354,0.256,0.763,0.378,1.168,0.378   c0.621,0,1.233-0.288,1.624-0.831l7.209-10c0.006-0.008,0.009-0.016,0.014-0.023c0.016-0.021,0.029-0.044,0.044-0.066   C78.214,68.234,78.241,68.178,78.27,68.122z"/></g><text x="0" y="115" fill="#000000" font-size="5px" font-weight="bold" font-family="'Helvetica Neue', Helvetica, Arial-Unicode, Arial, Sans-serif">Created by Universal Icons</text><text x="0" y="120" fill="#000000" font-size="5px" font-weight="bold" font-family="'Helvetica Neue', Helvetica, Arial-Unicode, Arial, Sans-serif">from the Noun Project</text></svg>