<svg xmlns="http://www.w3.org/2000/svg" xmlns:xlink="http://www.w3.org/1999/xlink" version="1.1" x="0px" y="0px" viewBox="0 0 100 125" enable-background="new 0 0 100 100" xml:space="preserve"><g display="none"><path display="inline" fill="#000000" d="M52.284,12.329V5l-13.24,7.645l-13.238,7.645l13.238,7.643l13.24,7.645v-7.05   c14.132,0,25.587,11.456,25.587,25.587c0,14.132-11.455,25.587-25.587,25.587c-14.131,0-25.587-11.455-25.587-25.587   c0.001-4.176,1.001-8.118,2.776-11.6l-14.44-7.35C12.134,40.852,10.5,47.292,10.5,54.113c0,23.077,18.708,41.784,41.784,41.784   c23.077,0,41.784-18.707,41.784-41.784C94.068,31.037,75.361,12.329,52.284,12.329z"/></g><g display="none"><rect x="32.5" y="27.5" display="inline" width="5" height="5"/><rect x="37.5" y="32.5" display="inline" width="5" height="5"/><rect x="37.5" y="27.5" display="inline" width="5" height="5"/><rect x="57.5" y="27.5" display="inline" width="5" height="5"/><rect x="57.5" y="32.5" display="inline" width="5" height="5"/><rect x="62.5" y="27.5" display="inline" width="5" height="5"/><rect x="62.5" y="52.5" display="inline" width="5" height="5"/><rect x="57.5" y="52.5" display="inline" width="5" height="5"/><rect x="52.5" y="52.5" display="inline" width="5" height="5"/><rect x="47.5" y="52.5" display="inline" width="5" height="5"/><rect x="42.5" y="52.5" display="inline" width="5" height="5"/><rect x="37.5" y="52.5" display="inline" width="5" height="5"/><rect x="32.5" y="57.5" display="inline" width="5" height="5"/><rect x="5" y="50" display="inline" width="2.5" height="2.5"/><rect x="5" y="47.5" display="inline" width="2.5" height="2.5"/><rect x="5" y="45" display="inline" width="2.5" height="2.5"/><rect x="7.5" y="42.5" display="inline" width="2.5" height="2.5"/><rect x="7.5" y="40" display="inline" width="2.5" height="2.5"/><rect x="7.5" y="37.5" display="inline" width="2.5" height="2.5"/><rect x="10" y="35" display="inline" width="2.5" height="2.5"/><rect x="10" y="32.5" display="inline" width="2.5" height="2.5"/><rect x="10" y="30" display="inline" width="2.5" height="2.5"/><rect x="12.5" y="27.5" display="inline" width="2.5" height="2.5"/><rect x="12.5" y="25" display="inline" width="2.5" height="2.5"/><rect x="15" y="22.5" display="inline" width="2.5" height="2.5"/><rect x="17.5" y="20" display="inline" width="2.5" height="2.5"/><rect x="20" y="17.5" display="inline" width="2.5" height="2.5"/><rect x="22.5" y="15" display="inline" width="2.5" height="2.5"/><rect x="25" y="12.5" display="inline" width="2.5" height="2.5"/><rect x="27.5" y="12.5" display="inline" width="2.5" height="2.5"/><rect x="30" y="10" display="inline" width="2.5" height="2.5"/><rect x="32.5" y="10" display="inline" width="2.5" height="2.5"/><rect x="35" y="7.5" display="inline" width="2.5" height="2.5"/><rect x="37.5" y="7.5" display="inline" width="2.5" height="2.5"/><rect x="40" y="7.5" display="inline" width="2.5" height="2.5"/><rect x="42.5" y="5" display="inline" width="2.5" height="2.5"/><rect x="45" y="5" display="inline" width="2.5" height="2.5"/><rect x="47.5" y="5" display="inline" width="2.5" height="2.5"/><rect x="92.5" y="50" display="inline" width="2.5" height="2.5"/><rect x="92.5" y="47.5" display="inline" width="2.5" height="2.5"/><rect x="92.5" y="45" display="inline" width="2.5" height="2.5"/><rect x="90" y="42.5" display="inline" width="2.5" height="2.5"/><rect x="90" y="40" display="inline" width="2.5" height="2.5"/><rect x="90" y="37.5" display="inline" width="2.5" height="2.5"/><rect x="87.5" y="35" display="inline" width="2.5" height="2.5"/><rect x="87.5" y="32.5" display="inline" width="2.5" height="2.5"/><rect x="87.5" y="30" display="inline" width="2.5" height="2.5"/><rect x="85" y="27.5" display="inline" width="2.5" height="2.5"/><rect x="85" y="25" display="inline" width="2.5" height="2.5"/><rect x="82.5" y="22.5" display="inline" width="2.5" height="2.5"/><rect x="80" y="20" display="inline" width="2.5" height="2.5"/><rect x="77.5" y="17.5" display="inline" width="2.5" height="2.5"/><rect x="75" y="15" display="inline" width="2.5" height="2.5"/><rect x="72.5" y="12.5" display="inline" width="2.5" height="2.5"/><rect x="70" y="12.5" display="inline" width="2.5" height="2.5"/><rect x="67.5" y="10" display="inline" width="2.5" height="2.5"/><rect x="65" y="10" display="inline" width="2.5" height="2.5"/><rect x="62.5" y="7.5" display="inline" width="2.5" height="2.5"/><rect x="60" y="7.5" display="inline" width="2.5" height="2.5"/><rect x="57.5" y="7.5" display="inline" width="2.5" height="2.5"/><rect x="55" y="5" display="inline" width="2.5" height="2.5"/><rect x="52.5" y="5" display="inline" width="2.5" height="2.5"/><rect x="50" y="5" display="inline" width="2.5" height="2.5"/><rect x="5" y="47.5" display="inline" width="2.5" height="2.5"/><rect x="5" y="50" display="inline" width="2.5" height="2.5"/><rect x="5" y="52.5" display="inline" width="2.5" height="2.5"/><rect x="7.5" y="55" display="inline" width="2.5" height="2.5"/><rect x="7.5" y="57.5" display="inline" width="2.5" height="2.5"/><rect x="7.5" y="60" display="inline" width="2.5" height="2.5"/><rect x="10" y="62.5" display="inline" width="2.5" height="2.5"/><rect x="10" y="65" display="inline" width="2.5" height="2.5"/><rect x="10" y="67.5" display="inline" width="2.5" height="2.5"/><rect x="12.5" y="70" display="inline" width="2.5" height="2.5"/><rect x="12.5" y="72.5" display="inline" width="2.5" height="2.5"/><rect x="15" y="75" display="inline" width="2.5" height="2.5"/><rect x="17.5" y="77.5" display="inline" width="2.5" height="2.5"/><rect x="20" y="80" display="inline" width="2.5" height="2.5"/><rect x="22.5" y="82.5" display="inline" width="2.5" height="2.5"/><rect x="25" y="85" display="inline" width="2.5" height="2.5"/><rect x="27.5" y="85" display="inline" width="2.5" height="2.5"/><rect x="30" y="87.5" display="inline" width="2.5" height="2.5"/><rect x="32.5" y="87.5" display="inline" width="2.5" height="2.5"/><rect x="35" y="90" display="inline" width="2.5" height="2.5"/><rect x="37.5" y="90" display="inline" width="2.5" height="2.5"/><rect x="40" y="90" display="inline" width="2.5" height="2.5"/><rect x="42.5" y="92.5" display="inline" width="2.5" height="2.5"/><rect x="45" y="92.5" display="inline" width="2.5" height="2.5"/><rect x="47.5" y="92.5" display="inline" width="2.5" height="2.5"/><rect x="92.5" y="47.5" display="inline" width="2.5" height="2.5"/><rect x="92.5" y="50" display="inline" width="2.5" height="2.5"/><rect x="92.5" y="52.5" display="inline" width="2.5" height="2.5"/><rect x="90" y="55" display="inline" width="2.5" height="2.5"/><rect x="90" y="57.5" display="inline" width="2.5" height="2.5"/><rect x="90" y="60" display="inline" width="2.5" height="2.5"/><rect x="87.5" y="62.5" display="inline" width="2.5" height="2.5"/><rect x="87.5" y="65" display="inline" width="2.5" height="2.5"/><rect x="87.5" y="67.5" display="inline" width="2.5" height="2.5"/><rect x="85" y="70" display="inline" width="2.5" height="2.5"/><rect x="85" y="72.5" display="inline" width="2.5" height="2.5"/><rect x="82.5" y="75" display="inline" width="2.5" height="2.5"/><rect x="80" y="77.5" display="inline" width="2.5" height="2.5"/><rect x="77.5" y="80" display="inline" width="2.5" height="2.5"/><rect x="75" y="82.5" display="inline" width="2.5" height="2.5"/><rect x="72.5" y="85" display="inline" width="2.5" height="2.5"/><rect x="70" y="85" display="inline" width="2.5" height="2.5"/><rect x="67.5" y="87.5" display="inline" width="2.5" height="2.5"/><rect x="65" y="87.5" display="inline" width="2.5" height="2.5"/><rect x="62.5" y="90" display="inline" width="2.5" height="2.5"/><rect x="60" y="90" display="inline" width="2.5" height="2.5"/><rect x="57.5" y="90" display="inline" width="2.5" height="2.5"/><rect x="90" y="50" display="inline" width="2.5" height="2.5"/><rect x="90" y="47.5" display="inline" width="2.5" height="2.5"/><rect x="90" y="45" display="inline" width="2.5" height="2.5"/><rect x="87.5" y="42.5" display="inline" width="2.5" height="2.5"/><rect x="87.5" y="40" display="inline" width="2.5" height="2.5"/><rect x="87.5" y="37.5" display="inline" width="2.5" height="2.5"/><rect x="85" y="35" display="inline" width="2.5" height="2.5"/><rect x="85" y="32.5" display="inline" width="2.5" height="2.5"/><rect x="85" y="30" display="inline" width="2.5" height="2.5"/><rect x="82.5" y="27.5" display="inline" width="2.5" height="2.5"/><rect x="82.5" y="25" display="inline" width="2.5" height="2.5"/><rect x="80" y="22.5" display="inline" width="2.5" height="2.5"/><rect x="77.5" y="20" display="inline" width="2.5" height="2.5"/><rect x="75" y="17.5" display="inline" width="2.5" height="2.5"/><rect x="72.5" y="15" display="inline" width="2.5" height="2.5"/><rect x="70" y="12.5" display="inline" width="2.5" height="2.5"/><rect x="67.5" y="12.5" display="inline" width="2.5" height="2.5"/><rect x="65" y="10" display="inline" width="2.5" height="2.5"/><rect x="62.5" y="10" display="inline" width="2.5" height="2.5"/><rect x="60" y="7.5" display="inline" width="2.5" height="2.5"/><rect x="57.5" y="7.5" display="inline" width="2.5" height="2.5"/><rect x="55" y="7.5" display="inline" width="2.5" height="2.5"/><rect x="90" y="47.5" display="inline" width="2.5" height="2.5"/><rect x="90" y="50" display="inline" width="2.5" height="2.5"/><rect x="90" y="52.5" display="inline" width="2.5" height="2.5"/><rect x="87.5" y="55" display="inline" width="2.5" height="2.5"/><rect x="87.5" y="57.5" display="inline" width="2.5" height="2.5"/><rect x="87.5" y="60" display="inline" width="2.5" height="2.5"/><rect x="85" y="62.5" display="inline" width="2.5" height="2.5"/><rect x="85" y="65" display="inline" width="2.5" height="2.5"/><rect x="85" y="67.5" display="inline" width="2.5" height="2.5"/><rect x="82.5" y="70" display="inline" width="2.5" height="2.5"/><rect x="82.5" y="72.5" display="inline" width="2.5" height="2.5"/><rect x="80" y="75" display="inline" width="2.5" height="2.5"/><rect x="77.5" y="77.5" display="inline" width="2.5" height="2.5"/><rect x="72.5" y="82.5" display="inline" width="2.5" height="2.5"/><rect x="70" y="85" display="inline" width="2.5" height="2.5"/><rect x="67.5" y="85" display="inline" width="2.5" height="2.5"/><rect x="65" y="87.5" display="inline" width="2.5" height="2.5"/><rect x="62.5" y="87.5" display="inline" width="2.5" height="2.5"/><rect x="60" y="90" display="inline" width="2.5" height="2.5"/><rect x="57.5" y="90" display="inline" width="2.5" height="2.5"/><rect x="55" y="90" display="inline" width="2.5" height="2.5"/><rect x="55" y="92.5" display="inline" width="2.5" height="2.5"/><rect x="52.5" y="92.5" display="inline" width="2.5" height="2.5"/><rect x="50" y="92.5" display="inline" width="2.5" height="2.5"/><rect x="7.5" y="50" display="inline" width="2.5" height="2.5"/><rect x="7.5" y="47.5" display="inline" width="2.5" height="2.5"/><rect x="7.5" y="45" display="inline" width="2.5" height="2.5"/><rect x="10" y="42.5" display="inline" width="2.5" height="2.5"/><rect x="10" y="40" display="inline" width="2.5" height="2.5"/><rect x="10" y="37.5" display="inline" width="2.5" height="2.5"/><rect x="12.5" y="35" display="inline" width="2.5" height="2.5"/><rect x="12.5" y="32.5" display="inline" width="2.5" height="2.5"/><rect x="12.5" y="30" display="inline" width="2.5" height="2.5"/><rect x="15" y="27.5" display="inline" width="2.5" height="2.5"/><rect x="15" y="25" display="inline" width="2.5" height="2.5"/><rect x="17.5" y="22.5" display="inline" width="2.5" height="2.5"/><rect x="20" y="20" display="inline" width="2.5" height="2.5"/><rect x="22.5" y="17.5" display="inline" width="2.5" height="2.5"/><rect x="25" y="15" display="inline" width="2.5" height="2.5"/><rect x="27.5" y="12.5" display="inline" width="2.5" height="2.5"/><rect x="30" y="12.5" display="inline" width="2.5" height="2.5"/><rect x="32.5" y="10" display="inline" width="2.5" height="2.5"/><rect x="35" y="10" display="inline" width="2.5" height="2.5"/><rect x="37.5" y="7.5" display="inline" width="2.5" height="2.5"/><rect x="40" y="7.5" display="inline" width="2.5" height="2.5"/><rect x="42.5" y="7.5" display="inline" width="2.5" height="2.5"/><rect x="45" y="5" display="inline" width="2.5" height="2.5"/><rect x="47.5" y="5" display="inline" width="2.5" height="2.5"/><rect x="50" y="5" display="inline" width="2.5" height="2.5"/><rect x="52.5" y="5" display="inline" width="2.5" height="2.5"/><rect x="45" y="7.5" display="inline" width="2.5" height="2.5"/><rect x="47.5" y="7.5" display="inline" width="2.5" height="2.5"/><rect x="50" y="7.5" display="inline" width="2.5" height="2.5"/><rect x="52.5" y="7.5" display="inline" width="2.5" height="2.5"/><rect x="7.5" y="47.5" display="inline" width="2.5" height="2.5"/><rect x="7.5" y="50" display="inline" width="2.5" height="2.5"/><rect x="7.5" y="52.5" display="inline" width="2.5" height="2.5"/><rect x="10" y="55" display="inline" width="2.5" height="2.5"/><rect x="10" y="57.5" display="inline" width="2.5" height="2.5"/><rect x="10" y="60" display="inline" width="2.5" height="2.5"/><rect x="12.5" y="62.5" display="inline" width="2.5" height="2.5"/><rect x="12.5" y="65" display="inline" width="2.5" height="2.5"/><rect x="12.5" y="67.5" display="inline" width="2.5" height="2.5"/><rect x="15" y="70" display="inline" width="2.5" height="2.5"/><rect x="15" y="72.5" display="inline" width="2.5" height="2.5"/><rect x="17.5" y="75" display="inline" width="2.5" height="2.5"/><rect x="22.5" y="80" display="inline" width="2.5" height="2.5"/><rect x="25" y="82.5" display="inline" width="2.5" height="2.5"/><rect x="27.5" y="85" display="inline" width="2.5" height="2.5"/><rect x="30" y="85" display="inline" width="2.5" height="2.5"/><rect x="32.5" y="87.5" display="inline" width="2.5" height="2.5"/><rect x="35" y="87.5" display="inline" width="2.5" height="2.5"/><rect x="37.5" y="90" display="inline" width="2.5" height="2.5"/><rect x="40" y="90" display="inline" width="2.5" height="2.5"/><rect x="42.5" y="90" display="inline" width="2.5" height="2.5"/><rect x="45" y="92.5" display="inline" width="2.5" height="2.5"/><rect x="47.5" y="92.5" display="inline" width="2.5" height="2.5"/><rect x="50" y="92.5" display="inline" width="2.5" height="2.5"/><rect x="52.5" y="92.5" display="inline" width="2.5" height="2.5"/><rect x="42.5" y="90" display="inline" width="2.5" height="2.5"/><rect x="45" y="90" display="inline" width="2.5" height="2.5"/><rect x="47.5" y="90" display="inline" width="2.5" height="2.5"/><rect x="50" y="90" display="inline" width="2.5" height="2.5"/><rect x="45" y="90" display="inline" width="2.5" height="2.5"/><rect x="47.5" y="90" display="inline" width="2.5" height="2.5"/><rect x="50" y="90" display="inline" width="2.5" height="2.5"/><rect x="52.5" y="90" display="inline" width="2.5" height="2.5"/></g><g><path d="M50.026,95.152c-24.793,0-44.963-20.17-44.963-44.963S25.233,5.227,50.026,5.227s44.963,20.17,44.963,44.963   S74.819,95.152,50.026,95.152z M50.026,9.475c-22.449,0-40.715,18.266-40.715,40.715s18.266,40.715,40.715,40.715   c22.451,0,40.715-18.266,40.715-40.715S72.478,9.475,50.026,9.475z"/><path d="M68.526,24.646h-37c-3.847,0-6.976,3.129-6.976,6.975v37c0,3.847,3.129,6.977,6.976,6.977h37   c3.847,0,6.976-3.13,6.976-6.977v-37C75.502,27.775,72.373,24.646,68.526,24.646z"/></g><text x="0" y="115" fill="#000000" font-size="5px" font-weight="bold" font-family="'Helvetica Neue', Helvetica, Arial-Unicode, Arial, Sans-serif">Created by Universal Icons</text><text x="0" y="120" fill="#000000" font-size="5px" font-weight="bold" font-family="'Helvetica Neue', Helvetica, Arial-Unicode, Arial, Sans-serif">from the Noun Project</text></svg>