<svg xmlns:dc="http://purl.org/dc/elements/1.1/" xmlns:cc="http://creativecommons.org/ns#" xmlns:rdf="http://www.w3.org/1999/02/22-rdf-syntax-ns#" xmlns:svg="http://www.w3.org/2000/svg" xmlns="http://www.w3.org/2000/svg" xmlns:sodipodi="http://sodipodi.sourceforge.net/DTD/sodipodi-0.dtd" xmlns:inkscape="http://www.inkscape.org/namespaces/inkscape" version="1.1" x="0px" y="0px" viewBox="0 0 100 125"><g transform="translate(0,-952.36218)"><path style="text-indent:0;text-transform:none;direction:ltr;block-progression:tb;baseline-shift:baseline;color:#000000;enable-background:accumulate;" d="m 50.000002,958.36208 c -7.63878,0 -13.9134,6.22214 -14,13.84375 l -13,0 c -9.33624,0 -17,7.66088 -17,17.00004 l 0,40.15623 c 0,9.3391 7.66538,17 17,17 l 15.59375,0 a 2.0002,2.0002 0 1 0 0,-4 l -15.59375,0 c -7.15294,0 -13,-5.8437 -13,-13 l 0,-40.15623 c 0,-7.15633 5.84868,-13.00004 13,-13.00004 l 53.999996,0 c 7.15132,0 13,5.84371 13,13.00004 l 0,40.15623 c 0,7.1563 -5.84706,13 -13,13 l -16.343746,0 a 2.0002,2.0002 0 1 0 0,4 l 16.343746,0 c 9.33462,0 17,-7.6609 17,-17 l 0,-40.15623 c 0,-9.33916 -7.66376,-17.00004 -17,-17.00004 l -12.999996,0 c -0.0866,-7.62161 -6.36122,-13.84375 -14,-13.84375 z m 0,4 c 5.45637,0 9.91382,4.40327 10,9.84375 l -20,0 c 0.0862,-5.44048 4.54363,-9.84375 10,-9.84375 z" fill="#000000" fill-opacity="1" fill-rule="evenodd" stroke="none" marker="none" visibility="visible" display="inline" overflow="visible"/><path style="text-indent:0;text-transform:none;direction:ltr;block-progression:tb;baseline-shift:baseline;color:#000000;enable-background:accumulate;" d="m 49.875002,1002.0184 a 2.0002,2.0002 0 0 0 -1.21875,0.5 l -7.5,6.7499 -7.5,6.7813 a 2.0002,2.0002 0 1 0 2.65625,2.9687 l 7.53125,-6.75 4.40625,-3.9687 0,35.8125 a 2.0002,2.0002 0 1 0 4,0 l 0,-35.375 3.9375,3.5312 7.5,6.75 a 2.002257,2.002257 0 1 0 2.6875,-2.9687 l -7.53125,-6.7813 -7.5,-6.7499 a 2.0002,2.0002 0 0 0 -1.28125,-0.5 2.0002,2.0002 0 0 0 -0.1875,0 z" fill="#000000" fill-opacity="1" fill-rule="evenodd" stroke="none" marker="none" visibility="visible" display="inline" overflow="visible"/></g><text x="0" y="115" fill="#000000" font-size="5px" font-weight="bold" font-family="'Helvetica Neue', Helvetica, Arial-Unicode, Arial, Sans-serif">Created by andriwidodo</text><text x="0" y="120" fill="#000000" font-size="5px" font-weight="bold" font-family="'Helvetica Neue', Helvetica, Arial-Unicode, Arial, Sans-serif">from the Noun Project</text></svg>